{
    "accessors": [
        {
            "bufferView": 0,
            "componentType": 5126,
            "count": 36,
            "max": [
                100,
                55.77900314331055,
                104.28900146484375
            ],
            "min": [
                -100,
                -55.77900314331055,
                -104.28900146484375
            ],
            "type": "VEC3"
        },
        {
            "bufferView": 1,
            "componentType": 5126,
            "count": 36,
            "type": "VEC3"
        },
        {
            "bufferView": 2,
            "componentType": 5125,
            "count": 36,
            "type": "SCALAR"
        },
        {
            "bufferView": 3,
            "componentType": 5126,
            "count": 432,
            "max": [
                13.186800003051758,
                18.00819969177246,
                13.186800003051758
            ],
            "min": [
                -13.186800003051758,
                -18.00819969177246,
                -13.186800003051758
            ],
            "type": "VEC3"
        },
        {
            "bufferView": 4,
            "componentType": 5126,
            "count": 432,
            "type": "VEC3"
        },
        {
            "bufferView": 5,
            "componentType": 5125,
            "count": 432,
            "type": "SCALAR"
        },
        {
            "bufferView": 6,
            "componentType": 5126,
            "count": 432,
            "max": [
                13.186800003051758,
                79.83619689941406,
                13.186800003051758
            ],
            "min": [
                -13.186800003051758,
                -79.83619689941406,
                -13.186800003051758
            ],
            "type": "VEC3"
        },
        {
            "bufferView": 7,
            "componentType": 5126,
            "count": 432,
            "type": "VEC3"
        },
        {
            "bufferView": 8,
            "componentType": 5125,
            "count": 432,
            "type": "SCALAR"
        },
        {
            "bufferView": 9,
            "componentType": 5126,
            "count": 432,
            "max": [
                13.186800003051758,
                199.95901489257812,
                13.186800003051758
            ],
            "min": [
                -13.186800003051758,
                -199.95901489257812,
                -13.186800003051758
            ],
            "type": "VEC3"
        },
        {
            "bufferView": 10,
            "componentType": 5126,
            "count": 432,
            "type": "VEC3"
        },
        {
            "bufferView": 11,
            "componentType": 5125,
            "count": 432,
            "type": "SCALAR"
        }
    ],
    "asset": {
        "generator": "Luxion KeyShot",
        "version": "2.0"
    },
    "bufferViews": [
        {
            "buffer": 0,
            "byteLength": 432,
            "byteOffset": 0,
            "byteStride": 12
        },
        {
            "buffer": 0,
            "byteLength": 432,
            "byteOffset": 432,
            "byteStride": 12
        },
        {
            "buffer": 0,
            "byteLength": 144,
            "byteOffset": 864
        },
        {
            "buffer": 0,
            "byteLength": 5184,
            "byteOffset": 1008,
            "byteStride": 12
        },
        {
            "buffer": 0,
            "byteLength": 5184,
            "byteOffset": 6192,
            "byteStride": 12
        },
        {
            "buffer": 0,
            "byteLength": 1728,
            "byteOffset": 11376
        },
        {
            "buffer": 0,
            "byteLength": 5184,
            "byteOffset": 13104,
            "byteStride": 12
        },
        {
            "buffer": 0,
            "byteLength": 5184,
            "byteOffset": 18288,
            "byteStride": 12
        },
        {
            "buffer": 0,
            "byteLength": 1728,
            "byteOffset": 23472
        },
        {
            "buffer": 0,
            "byteLength": 5184,
            "byteOffset": 25200,
            "byteStride": 12
        },
        {
            "buffer": 0,
            "byteLength": 5184,
            "byteOffset": 30384,
            "byteStride": 12
        },
        {
            "buffer": 0,
            "byteLength": 1728,
            "byteOffset": 35568
        }
    ],
    "buffers": [
        {
            "byteLength": 37296,
            "uri": "1 resources/1.bin"
        }
    ],
    "cameras": [
        {
            "name": "active",
            "perspective": {
                "aspectRatio": 1,
                "yfov": 0.6911154697478635,
                "zfar": 1229.708251953125,
                "znear": 680.0525512695312
            },
            "type": "perspective"
        }
    ],
    "materials": [
        {
            "doubleSided": true,
            "pbrMetallicRoughness": {
                "baseColorFactor": [
                    0.7783510088920593,
                    0.24472199380397797,
                    0.24472199380397797,
                    1
                ],
                "metallicFactor": 0,
                "roughnessFactor": 0.5
            }
        },
        {
            "doubleSided": true,
            "pbrMetallicRoughness": {
                "baseColorFactor": [
                    0.9845361113548279,
                    0.6061990857124329,
                    0.22786204516887665,
                    1
                ],
                "metallicFactor": 0,
                "roughnessFactor": 0.5
            }
        },
        {
            "doubleSided": true,
            "pbrMetallicRoughness": {
                "baseColorFactor": [
                    0.7783510088920593,
                    0.24472199380397797,
                    0.24472199380397797,
                    1
                ],
                "metallicFactor": 0,
                "roughnessFactor": 0.5
            }
        },
        {
            "doubleSided": true,
            "pbrMetallicRoughness": {
                "baseColorFactor": [
                    0.0463918000459671,
                    0.01944809965789318,
                    0.01944809965789318,
                    1
                ],
                "metallicFactor": 0,
                "roughnessFactor": 0.5175500009208918
            }
        }
    ],
    "meshes": [
        {
            "name": "ID5-mesh",
            "primitives": [
                {
                    "attributes": {
                        "NORMAL": 1,
                        "POSITION": 0
                    },
                    "indices": 2,
                    "material": 0,
                    "mode": 4
                }
            ]
        },
        {
            "name": "ID14-mesh",
            "primitives": [
                {
                    "attributes": {
                        "NORMAL": 4,
                        "POSITION": 3
                    },
                    "indices": 5,
                    "material": 1,
                    "mode": 4
                }
            ]
        },
        {
            "name": "ID23-mesh",
            "primitives": [
                {
                    "attributes": {
                        "NORMAL": 7,
                        "POSITION": 6
                    },
                    "indices": 8,
                    "material": 2,
                    "mode": 4
                }
            ]
        },
        {
            "name": "ID32-mesh",
            "primitives": [
                {
                    "attributes": {
                        "NORMAL": 10,
                        "POSITION": 9
                    },
                    "indices": 11,
                    "material": 3,
                    "mode": 4
                }
            ]
        }
    ],
    "nodes": [
        {
            "camera": 0,
            "matrix": [
                0.5603779870940713,
                -6.070619251730136e-07,
                0.8282369782862062,
                0,
                0.13776324626470154,
                0.9860696735427354,
                -0.0932086999927779,
                0,
                -0.8166993260383606,
                0.16633272171020508,
                0.5525718331336975,
                0,
                -779.8505859375,
                354.00494384765625,
                527.6398315429688,
                1
            ],
            "name": "active"
        },
        {
            "mesh": 0,
            "name": "ID5"
        },
        {
            "children": [
                1
            ],
            "matrix": [
                1,
                0,
                0,
                0,
                0,
                1,
                0,
                0,
                0,
                0,
                1,
                0,
                0,
                -144.23300170898438,
                -324.1099853515625,
                1
            ],
            "name": "┴бий╠т"
        },
        {
            "mesh": 1,
            "name": "ID14"
        },
        {
            "children": [
                3
            ],
            "matrix": [
                0.017871500924229622,
                0.8047800064086914,
                0.5933039784431458,
                0,
                -0.9998400211334229,
                0.014384900219738483,
                0.010604900307953358,
                0,
                0,
                -0.5933989882469177,
                0.8049079775810242,
                0,
                -0.3308970034122467,
                33.46780014038086,
                -232.0800018310547,
                1
            ],
            "name": "н▓ощ.2"
        },
        {
            "mesh": 2,
            "name": "ID23"
        },
        {
            "children": [
                5
            ],
            "matrix": [
                1,
                0,
                0,
                0,
                0,
                0.8049079775810242,
                0.5933989882469177,
                0,
                0,
                -0.5933989882469177,
                0.8049079775810242,
                0,
                0.6898069977760315,
                -37.71369934082031,
                -285.3890075683594,
                1
            ],
            "name": "н▓ощ.1"
        },
        {
            "mesh": 3,
            "name": "ID32"
        },
        {
            "children": [
                7
            ],
            "matrix": [
                1,
                0,
                0,
                0,
                0,
                0.33632099628448486,
                0.9417470097541809,
                0,
                0,
                -0.9417470097541809,
                0.33632099628448486,
                0,
                0,
                110.6729965209961,
                -39.52410125732422,
                1
            ],
            "name": "н▓ощ"
        },
        {
            "children": [
                2,
                4,
                6,
                8
            ],
            "matrix": [
                1,
                0,
                0,
                0,
                0,
                1,
                0,
                0,
                0,
                0,
                1,
                0,
                0,
                200.01199340820312,
                137.58900451660156,
                1
            ],
            "name": "%E6%9C%AA%E6%A0%87%E9%A2%98%201"
        },
        {
            "children": [
                9
            ],
            "name": "Default"
        }
    ],
    "scenes": [
        {
            "nodes": [
                0,
                10
            ]
        }
    ]
}
   